<svg width="101" height="112" viewBox="0 0 101 112" fill="none" xmlns="http://www.w3.org/2000/svg">
<path d="M62.9914 66.1202V40.4375H60.4353V66.1202L58.8086 66.6199V67.3937H64.6181V66.6199L62.9914 66.1202Z" fill="#3A302E"/>
<path d="M30.4563 40.4375H27.9001V66.1202L26.2734 66.6199V67.3937H32.083V66.6199L30.4563 66.1202V40.4375Z" fill="#3A302E"/>
<g opacity="0.2">
<path d="M62.9914 43.4531H60.4353V66.1149L58.8086 66.6145V67.3884H64.6181V66.6145L62.9914 66.1149V43.4531Z" fill="white"/>
<path d="M30.4563 43.4531H27.9001V66.1149L26.2734 66.6145V67.3884H32.083V66.6145L30.4563 66.1149V43.4531Z" fill="white"/>
</g>
<path d="M70.8906 41.3638V0L19.9992 0V41.3638H70.8906Z" fill="#3A302E"/>
<path opacity="0.2" d="M70.8906 41.3638V0L19.9992 0V41.3638H70.8906Z" fill="white"/>
<path d="M69.7608 1.14844H21.1328V40.1931H69.7608V1.14844Z" fill="#FF5252"/>
<path opacity="0.3" d="M69.7608 1.14844H21.1328V40.1931H69.7608V1.14844Z" fill="white"/>
<path d="M26.6211 4.64844V15.2218H43.471L26.6211 4.64844Z" stroke="#EB5757" stroke-width="0.232381" stroke-miterlimit="10"/>
<path d="M27.4699 15.2473V14.3828H26.6055" stroke="#EB5757" stroke-width="0.184348" stroke-miterlimit="10"/>
<path d="M35.5392 8.27993C35.4632 8.27993 35.3895 8.26187 35.318 8.22574C35.2472 8.18887 35.1978 8.13467 35.1697 8.06314L35.2184 8.02775L35.1808 8.25781H35.0038V6.59868H35.2029V7.38621L35.1609 7.35524C35.1978 7.29551 35.2505 7.24685 35.3191 7.20924C35.3876 7.17089 35.461 7.15172 35.5392 7.15172C35.6402 7.15172 35.7272 7.17827 35.8002 7.23136C35.8732 7.28371 35.9293 7.35303 35.9683 7.4393C36.0082 7.52484 36.0281 7.61702 36.0281 7.71583C36.0281 7.82128 36.0063 7.91677 35.9628 8.00231C35.9193 8.08711 35.8607 8.15458 35.7869 8.20472C35.7132 8.25486 35.6306 8.27993 35.5392 8.27993ZM35.5148 8.10296C35.5783 8.10296 35.6332 8.08563 35.6796 8.05097C35.7261 8.01558 35.7619 7.96875 35.7869 7.9105C35.812 7.85151 35.8245 7.78662 35.8245 7.71583C35.8245 7.64209 35.812 7.57609 35.7869 7.51784C35.7619 7.45958 35.7261 7.4135 35.6796 7.37958C35.6332 7.34566 35.5783 7.3287 35.5148 7.3287C35.4581 7.3287 35.405 7.34307 35.3556 7.37183C35.3069 7.39985 35.2674 7.44262 35.2372 7.50014C35.207 7.55692 35.1919 7.62882 35.1919 7.71583C35.1919 7.80653 35.207 7.88027 35.2372 7.93705C35.2674 7.99383 35.3069 8.03586 35.3556 8.06314C35.405 8.08969 35.4581 8.10296 35.5148 8.10296Z" fill="#EB5757"/>
<path d="M27.3634 24.2487C27.2874 24.2487 27.2137 24.2306 27.1422 24.1945C27.0714 24.1576 27.022 24.1034 26.994 24.0319L27.0426 23.9965L27.005 24.2266H26.828V22.5674H27.0271V23.355L26.9851 23.324C27.022 23.2643 27.0747 23.2156 27.1433 23.178C27.2119 23.1396 27.2852 23.1205 27.3634 23.1205C27.4644 23.1205 27.5514 23.147 27.6244 23.2001C27.6974 23.2525 27.7535 23.3218 27.7926 23.4081C27.8324 23.4936 27.8523 23.5858 27.8523 23.6846C27.8523 23.79 27.8305 23.8855 27.787 23.9711C27.7435 24.0559 27.6849 24.1233 27.6112 24.1735C27.5374 24.2236 27.4548 24.2487 27.3634 24.2487ZM27.3391 24.0717C27.4025 24.0717 27.4574 24.0544 27.5039 24.0197C27.5503 23.9843 27.5861 23.9375 27.6112 23.8792C27.6362 23.8203 27.6488 23.7554 27.6488 23.6846C27.6488 23.6108 27.6362 23.5448 27.6112 23.4866C27.5861 23.4283 27.5503 23.3822 27.5039 23.3483C27.4574 23.3144 27.4025 23.2974 27.3391 23.2974C27.2823 23.2974 27.2292 23.3118 27.1798 23.3406C27.1311 23.3686 27.0917 23.4114 27.0614 23.4689C27.0312 23.5257 27.0161 23.5976 27.0161 23.6846C27.0161 23.7753 27.0312 23.849 27.0614 23.9058C27.0917 23.9626 27.1311 24.0046 27.1798 24.0319C27.2292 24.0584 27.2823 24.0717 27.3391 24.0717Z" fill="#EB5757"/>
<path d="M33.1835 17.1862C33.0611 17.1862 32.9582 17.1615 32.8749 17.1121C32.7923 17.0619 32.7296 16.9948 32.6868 16.9108C32.6448 16.826 32.6238 16.7319 32.6238 16.6287C32.6238 16.5211 32.6441 16.4241 32.6846 16.3378C32.7259 16.2515 32.789 16.1833 32.8738 16.1332C32.9586 16.083 33.067 16.058 33.199 16.058C33.2557 16.058 33.3092 16.0639 33.3593 16.0757C33.4102 16.0867 33.4556 16.1022 33.4954 16.1221L33.4644 16.2969C33.4239 16.2777 33.3807 16.2626 33.335 16.2515C33.29 16.2405 33.2432 16.2349 33.1945 16.2349C33.0751 16.2349 32.984 16.2689 32.9213 16.3367C32.8586 16.4045 32.8273 16.4989 32.8273 16.6199C32.8273 16.7378 32.8572 16.8326 32.9169 16.9041C32.9766 16.9757 33.0677 17.0114 33.1901 17.0114C33.2402 17.0114 33.2882 17.0055 33.3339 16.9937C33.3803 16.9819 33.4246 16.9657 33.4666 16.9451L33.4932 17.1043C33.4637 17.125 33.4205 17.1438 33.3638 17.1607C33.307 17.1777 33.2469 17.1862 33.1835 17.1862Z" fill="#EB5757"/>
<path d="M27.328 27.4987C27.2056 27.4987 27.1027 27.474 27.0194 27.4246C26.9368 27.3744 26.8741 27.3073 26.8314 27.2233C26.7893 27.1385 26.7683 27.0444 26.7683 26.9412C26.7683 26.8336 26.7886 26.7366 26.8291 26.6503C26.8704 26.564 26.9335 26.4958 27.0183 26.4457C27.1031 26.3955 27.2115 26.3705 27.3435 26.3705C27.4003 26.3705 27.4537 26.3764 27.5039 26.3882C27.5547 26.3992 27.6001 26.4147 27.6399 26.4346L27.6089 26.6094C27.5684 26.5902 27.5252 26.5751 27.4795 26.564C27.4346 26.553 27.3877 26.5474 27.3391 26.5474C27.2196 26.5474 27.1285 26.5814 27.0659 26.6492C27.0032 26.717 26.9718 26.8114 26.9718 26.9324C26.9718 27.0503 27.0017 27.1451 27.0614 27.2166C27.1212 27.2882 27.2122 27.3239 27.3346 27.3239C27.3848 27.3239 27.4327 27.318 27.4784 27.3062C27.5249 27.2944 27.5691 27.2782 27.6112 27.2576L27.6377 27.4168C27.6082 27.4375 27.5651 27.4563 27.5083 27.4732C27.4515 27.4902 27.3914 27.4987 27.328 27.4987Z" fill="#EB5757"/>
<path d="M25.1371 10.8034C25.07 10.8034 25.0114 10.7897 24.9613 10.7624C24.9111 10.7352 24.872 10.6979 24.844 10.6507C24.8167 10.6035 24.8031 10.5497 24.8031 10.4892C24.8031 10.428 24.8164 10.3757 24.8429 10.3322C24.8702 10.2879 24.9063 10.2514 24.9513 10.2227C24.997 10.1932 25.0479 10.17 25.1039 10.153C25.16 10.1353 25.2179 10.1228 25.2776 10.1154C25.3381 10.1073 25.396 10.1028 25.4513 10.1021C25.4513 9.99887 25.431 9.9314 25.3904 9.8997C25.3499 9.86799 25.2912 9.85213 25.2146 9.85213C25.174 9.85213 25.1305 9.8584 25.084 9.87094C25.0383 9.88347 24.9867 9.90965 24.9292 9.94947L24.9004 9.78798C24.9439 9.7548 24.9981 9.72788 25.063 9.70724C25.1279 9.68585 25.1961 9.67516 25.2677 9.67516C25.3591 9.67516 25.4328 9.69138 25.4889 9.72383C25.5449 9.75553 25.5858 9.80936 25.6116 9.88532C25.6375 9.96127 25.6504 10.0645 25.6504 10.195V10.4162C25.6504 10.4679 25.6526 10.5106 25.657 10.5445C25.6622 10.5777 25.6732 10.6028 25.6902 10.6198C25.7079 10.636 25.7359 10.6441 25.7742 10.6441H25.7942L25.7632 10.8034H25.7477C25.6835 10.8034 25.6338 10.7971 25.5984 10.7846C25.5637 10.772 25.5372 10.754 25.5187 10.7304C25.5003 10.7068 25.4837 10.678 25.469 10.6441C25.4284 10.6913 25.3805 10.7296 25.3252 10.7591C25.2699 10.7886 25.2072 10.8034 25.1371 10.8034ZM25.1747 10.6441C25.2278 10.6441 25.2791 10.6308 25.3285 10.6043C25.3786 10.5777 25.4196 10.5423 25.4513 10.4981V10.2393C25.3458 10.243 25.2603 10.2533 25.1946 10.2702C25.1298 10.2872 25.0822 10.3126 25.052 10.3466C25.0217 10.3805 25.0066 10.4244 25.0066 10.4782C25.0066 10.5364 25.0221 10.5788 25.0531 10.6054C25.0848 10.6312 25.1253 10.6441 25.1747 10.6441Z" fill="#EB5757"/>
<path d="M27.0824 20.9987C27.0153 20.9987 26.9567 20.985 26.9066 20.9578C26.8564 20.9305 26.8174 20.8932 26.7893 20.846C26.762 20.7989 26.7484 20.745 26.7484 20.6846C26.7484 20.6234 26.7617 20.571 26.7882 20.5275C26.8155 20.4832 26.8516 20.4467 26.8966 20.418C26.9423 20.3885 26.9932 20.3653 27.0493 20.3483C27.1053 20.3306 27.1632 20.3181 27.2229 20.3107C27.2834 20.3026 27.3413 20.2982 27.3966 20.2974C27.3966 20.1942 27.3763 20.1267 27.3357 20.095C27.2952 20.0633 27.2366 20.0474 27.1599 20.0474C27.1193 20.0474 27.0758 20.0537 27.0294 20.0662C26.9836 20.0788 26.932 20.105 26.8745 20.1448L26.8457 19.9833C26.8892 19.9501 26.9434 19.9232 27.0083 19.9025C27.0732 19.8812 27.1414 19.8705 27.213 19.8705C27.3044 19.8705 27.3781 19.8867 27.4342 19.9191C27.4902 19.9508 27.5311 20.0047 27.557 20.0806C27.5828 20.1566 27.5957 20.2598 27.5957 20.3903V20.6116C27.5957 20.6632 27.5979 20.7059 27.6023 20.7399C27.6075 20.773 27.6185 20.7981 27.6355 20.8151C27.6532 20.8313 27.6812 20.8394 27.7196 20.8394H27.7395L27.7085 20.9987H27.693C27.6289 20.9987 27.5791 20.9924 27.5437 20.9799C27.509 20.9673 27.4825 20.9493 27.464 20.9257C27.4456 20.9021 27.429 20.8733 27.4143 20.8394C27.3737 20.8866 27.3258 20.9249 27.2705 20.9544C27.2152 20.9839 27.1525 20.9987 27.0824 20.9987ZM27.1201 20.8394C27.1731 20.8394 27.2244 20.8261 27.2738 20.7996C27.3239 20.773 27.3649 20.7376 27.3966 20.6934V20.4346C27.2911 20.4383 27.2056 20.4486 27.14 20.4655C27.0751 20.4825 27.0275 20.5079 26.9973 20.5419C26.967 20.5758 26.9519 20.6197 26.9519 20.6735C26.9519 20.7317 26.9674 20.7741 26.9984 20.8007C27.0301 20.8265 27.0706 20.8394 27.1201 20.8394Z" fill="#EB5757"/>
<path d="M47.4219 4.76562H56.7171" stroke="#EB5757" stroke-width="0.232381" stroke-miterlimit="10"/>
<path d="M47.4219 6.625H52.5343" stroke="#EB5757" stroke-width="0.232381" stroke-miterlimit="10"/>
<path d="M47.4219 8.01562H54.6257" stroke="#EB5757" stroke-width="0.232381" stroke-miterlimit="10"/>
<path d="M47.4219 9.64062H53.4638" stroke="#EB5757" stroke-width="0.232381" stroke-miterlimit="10"/>
<path d="M47.4219 11.5H56.4847" stroke="#EB5757" stroke-width="0.232381" stroke-miterlimit="10"/>
<path d="M47.4219 13.1328H56.2523" stroke="#EB5757" stroke-width="0.232381" stroke-miterlimit="10"/>
<path d="M47.4219 14.7578H53.4638" stroke="#EB5757" stroke-width="0.232381" stroke-miterlimit="10"/>
<path d="M57.8789 28.9297H64.1532" stroke="#EB5757" stroke-width="0.232381" stroke-miterlimit="10"/>
<path d="M57.8789 30.7891H61.3646" stroke="#EB5757" stroke-width="0.232381" stroke-miterlimit="10"/>
<path d="M57.8789 32.1875H62.7589" stroke="#EB5757" stroke-width="0.232381" stroke-miterlimit="10"/>
<path d="M57.8789 33.8125H62.0618" stroke="#EB5757" stroke-width="0.232381" stroke-miterlimit="10"/>
<path d="M26.043 31.9531H32.3173" stroke="#EB5757" stroke-width="0.232381" stroke-miterlimit="10"/>
<path d="M26.043 33.8125H29.5287" stroke="#EB5757" stroke-width="0.232381" stroke-miterlimit="10"/>
<path d="M26.043 35.2031H30.923" stroke="#EB5757" stroke-width="0.232381" stroke-miterlimit="10"/>
<path d="M26.043 36.8359H30.2258" stroke="#EB5757" stroke-width="0.232381" stroke-miterlimit="10"/>
<path d="M59.7383 8.01562H65.7802" stroke="#EB5757" stroke-width="0.232381" stroke-miterlimit="10"/>
<path d="M59.7383 9.64062H65.7802" stroke="#EB5757" stroke-width="0.232381" stroke-miterlimit="10"/>
<path d="M59.7383 11.2734H63.9211" stroke="#EB5757" stroke-width="0.232381" stroke-miterlimit="10"/>
<path d="M41.8438 31.9531H47.8857" stroke="#EB5757" stroke-width="0.232381" stroke-miterlimit="10"/>
<path d="M41.8438 33.5781H47.8857" stroke="#EB5757" stroke-width="0.232381" stroke-miterlimit="10"/>
<path d="M41.8438 35.2031H46.0266" stroke="#EB5757" stroke-width="0.232381" stroke-miterlimit="10"/>
<path d="M30.457 21.2656H43.9351" stroke="#EB5757" stroke-width="0.232381" stroke-miterlimit="10"/>
<path d="M30.457 24.2812H43.9351" stroke="#EB5757" stroke-width="0.232381" stroke-miterlimit="10"/>
<path d="M30.457 27.3047H43.9351" stroke="#EB5757" stroke-width="0.232381" stroke-miterlimit="10"/>
<path d="M52.8738 28.9428C55.216 28.9428 57.1147 27.0441 57.1147 24.7019C57.1147 22.3597 55.216 20.4609 52.8738 20.4609C50.5316 20.4609 48.6328 22.3597 48.6328 24.7019C48.6328 27.0441 50.5316 28.9428 52.8738 28.9428Z" stroke="#EB5757" stroke-width="0.184348" stroke-miterlimit="10"/>
<path d="M52.8828 20.4531V24.7522H57.1819" stroke="#EB5757" stroke-width="0.232381" stroke-miterlimit="10"/>
<path opacity="0.6" d="M69.7608 1.14844H21.1328V40.1931H69.7608V1.14844Z" fill="white"/>
<path d="M51.4323 22.2269L47.8443 20.1355C47.2723 20.1782 46.6973 20.1517 46.1317 20.0565C45.2022 19.8961 45.0023 19.8869 45.1139 19.1549C45.2254 18.4229 45.0697 17.4469 45.3462 17.3446C45.6228 17.2424 47.5794 18.0673 47.9187 18.6273L51.5392 19.9217L51.4323 22.2269Z" fill="#B97964"/>
<path d="M62.0589 18.6797V22.8625C62.0589 22.8625 61.1665 23.1577 60.0581 23.4667C58.787 23.82 57.2323 24.1918 56.4236 24.1639C54.9132 24.0895 49.8008 21.4357 49.8008 21.4357L50.7303 19.665C50.7303 19.665 56.3074 21.5659 57.0046 21.4288C57.7017 21.2916 62.0589 18.6797 62.0589 18.6797Z" fill="#FF5252"/>
<path opacity="0.2" d="M62.0594 20.7188V22.866C62.0594 22.866 61.1671 23.1611 60.0586 23.4701C60.4676 22.2246 61.4877 21.2091 62.0594 20.7188Z" fill="black"/>
<path d="M62.9874 33.5703C62.9874 33.5703 60.4684 46.9926 59.7968 52.5047C58.9184 59.6946 55.3281 70.2121 55.3281 70.2121L56.7642 70.5839C56.7642 70.5839 61.8255 61.6466 62.8061 53.6039C66.8263 45.3846 67.1493 35.262 67.1493 35.262L62.9874 33.5703Z" fill="#B97964"/>
<path d="M52.6671 73.4657C52.8992 73.3589 53.1489 73.2959 53.4038 73.2798C53.4038 73.2798 54.2868 72.7593 55.1629 70.7422H56.1459C56.312 70.7445 56.4734 70.7976 56.6085 70.8944C56.7435 70.9912 56.8456 71.1271 56.9011 71.2836C56.9173 71.3277 56.9267 71.3739 56.929 71.4207C56.9188 71.6544 56.894 71.8873 56.8547 72.1179C56.7089 72.9033 56.5165 73.6792 56.2783 74.4417L56.111 74.3975L56.4155 72.9312C56.5154 72.4316 55.9925 72.9126 55.7485 73.4169C55.5045 73.9212 55.1327 74.4254 54.0475 74.1768C52.781 73.877 52.2698 73.6934 52.6671 73.4657Z" fill="#2E353A"/>
<path d="M65.6133 33.3516C65.6133 33.3516 65.927 47.0039 66.4103 52.5369C67.0378 59.7524 65.6993 70.7858 65.6993 70.7858L67.1819 70.8509C67.1819 70.8509 70.2841 61.0607 69.587 52.9877C71.8202 44.1131 70.0518 34.144 70.0518 34.144L65.6133 33.3516Z" fill="#B97964"/>
<path d="M63.3927 73.9146C63.6122 73.7826 63.854 73.692 64.1061 73.6474C64.1061 73.6474 64.9288 73.0362 65.5794 70.9355L66.5577 70.824C66.7241 70.8081 66.8912 70.8443 67.0361 70.9275C67.181 71.0108 67.2964 71.137 67.3664 71.2887C67.3873 71.3304 67.4014 71.3751 67.4083 71.4212C67.4234 71.6587 67.4234 71.897 67.4083 72.1346C67.3488 72.9281 67.2417 73.7173 67.0876 74.4979L66.9156 74.4723L67.0597 72.9805C67.1062 72.4739 66.6368 73.0107 66.4485 73.5358C66.2603 74.061 65.9466 74.6048 64.8381 74.477C63.5507 74.3097 63.0232 74.1842 63.3927 73.9146Z" fill="#2E353A"/>
<path d="M70.62 10.1306C70.62 10.1306 71.3566 10.1701 71.9771 11.3808C72.5975 12.5915 71.8214 13.937 71.6657 14.5807C71.51 15.2244 70.7362 15.7937 72.0143 16.7674C73.2924 17.7411 74.0592 18.7751 73.0228 19.8278C71.9864 20.8805 73.1251 21.6869 71.6285 22.4677C70.132 23.2485 64.6176 22.0796 63.9204 20.5691C63.2233 19.0587 64.0645 17.9107 64.1087 17.4599C64.1528 17.0091 63.2233 16.5466 62.9909 15.071C62.7585 13.5954 63.9483 13.2793 64.1087 12.6054C64.269 11.9315 63.5231 11.081 64.1087 9.64723C64.6943 8.21344 70.541 7.90437 70.62 10.1306Z" fill="#2E353A"/>
<path d="M74.3292 30.2342C73.4484 30.3481 72.4306 28.6285 71.694 27.025C71.0642 25.6656 70.625 24.3875 70.625 24.3875L71.0898 23.0769L72.3028 19.6562C72.3028 19.6562 73.151 20.8391 74.4268 25.3426C74.6312 26.0676 74.8776 26.8786 75.103 27.7849C75.1013 28.0139 75.172 28.2376 75.3052 28.424C75.3052 29.1049 75.3865 30.0971 74.3292 30.2342Z" fill="#FF5252"/>
<path opacity="0.2" d="M71.6769 27.0263C71.0494 25.6668 70.6172 24.3888 70.6172 24.3888L71.0819 23.0781C71.4073 23.9844 71.8837 25.6273 71.6769 27.0263Z" fill="black"/>
<path opacity="0.2" d="M75.3069 28.4274C74.8421 28.7342 74.3564 28.7295 74.0845 28.1695C73.5338 27.0378 74.066 25.9177 74.4424 25.3438C74.6492 26.0688 74.8863 26.8798 75.1117 27.7861C75.1042 28.0155 75.1729 28.241 75.3069 28.4274Z" fill="black"/>
<path d="M61.4414 29.7898C61.4414 29.7898 66.089 31.4537 70.5182 31.1446C70.5182 31.1446 70.1162 25.6604 67.7924 24.6844C65.4686 23.7084 61.4414 25.1027 61.4414 29.7898Z" fill="#FF5252"/>
<path opacity="0.2" d="M61.4414 29.7898C61.4414 29.7898 66.089 31.4537 70.5182 31.1446C70.5182 31.1446 70.1162 25.6604 67.7924 24.6844C65.4686 23.7084 61.4414 25.1027 61.4414 29.7898Z" fill="black"/>
<path d="M62.099 30.1759L69.7676 30.8381C69.8422 28.9372 70.1156 27.0493 70.5832 25.2052C70.7668 24.4709 70.9969 23.6506 71.292 22.7025C71.45 22.1959 71.6243 21.6521 71.8195 21.0758C71.9659 20.632 72.1239 20.1602 72.2982 19.6629C71.2568 19.3305 70.1929 19.0734 69.1146 18.8938C67.9766 18.6917 66.8258 18.5705 65.6707 18.5312C64.1788 18.5313 62.4638 18.6869 62.4638 18.6869C62.4638 18.6869 62.2198 18.745 62.0665 20.3276C61.9294 21.8032 61.7923 24.773 62.099 30.1759Z" fill="#FF5252"/>
<path d="M62.1352 31.3261L69.8038 31.9582C69.9246 30.0527 70.0152 27.4779 70.5892 25.2052C70.7728 24.4709 71.0029 23.6506 71.298 22.7025C71.456 22.1959 71.6303 21.6521 71.8255 21.0758C71.9719 20.632 72.1299 20.1602 72.3042 19.6629C71.2628 19.3305 70.1989 19.0734 69.1206 18.8938C67.9826 18.6917 66.8318 18.5705 65.6767 18.5312C64.1848 18.5312 62.4698 18.6869 62.4698 18.6869C62.4698 18.6869 62.2258 18.745 62.0725 20.3276C61.9284 21.8032 61.8261 25.9233 62.1352 31.3261Z" fill="#2E353A"/>
<path d="M66.304 20.2215C68.1956 19.9891 68.7626 19.1711 68.7626 19.1711C67.5635 18.0394 68.5605 16.0781 68.5605 16.0781L66.2854 16.5034C66.3388 16.8206 66.3684 17.1414 66.3737 17.4631C66.3923 18.8435 65.7672 18.8574 65.7672 18.8574C65.3675 19.6033 66.304 20.2215 66.304 20.2215Z" fill="#B97964"/>
<path opacity="0.2" d="M66.2852 16.5049C66.3386 16.8221 66.3681 17.1429 66.3735 17.4646C67.9095 17.4646 68.5602 16.0703 68.5602 16.0703L66.2852 16.5049Z" fill="black"/>
<path d="M67.5449 10.1404C65.5673 10.0335 64.8725 11.0583 64.6169 13.087C64.2962 15.6246 64.7609 17.465 67.2637 17.0561C70.6588 16.5053 70.8307 10.3217 67.5449 10.1404Z" fill="#B97964"/>
<path d="M65.8978 13.0469C65.7237 13.3336 65.5153 13.5982 65.2773 13.8346C65.3311 13.9197 65.4073 13.9883 65.4974 14.033C65.5876 14.0777 65.6883 14.0967 65.7886 14.0879L65.8978 13.0469Z" fill="#A24E3F"/>
<path d="M67.1172 12.9512C67.1172 13.1139 67.1823 13.251 67.2915 13.2603C67.4007 13.2696 67.496 13.1441 67.5099 12.9814C67.5239 12.8188 67.4448 12.6817 67.3356 12.6724C67.2264 12.6631 67.1311 12.7862 67.1172 12.9512Z" fill="#2E353A"/>
<path d="M67.383 12.6829L67.0391 12.5156C67.0391 12.5156 67.1924 12.827 67.383 12.6829Z" fill="#2E353A"/>
<path d="M65.1027 12.7559C65.0911 12.9186 65.1678 13.058 65.277 13.065C65.3862 13.0719 65.4815 12.9488 65.4954 12.7861C65.5094 12.6234 65.4304 12.4863 65.3235 12.477C65.2166 12.4678 65.1167 12.5932 65.1027 12.7559Z" fill="#2E353A"/>
<path d="M65.3674 12.4931L65.0234 12.3281C65.0234 12.3281 65.1768 12.6395 65.3674 12.4931Z" fill="#2E353A"/>
<path d="M67.2148 11.5804C67.3722 11.5699 67.5299 11.5956 67.6758 11.6556C67.8216 11.7156 67.9517 11.8084 68.0561 11.9267" stroke="#2E353A" stroke-width="0.168402" stroke-linecap="round" stroke-linejoin="round"/>
<path d="M65.7775 11.4245C65.6443 11.3832 65.5035 11.3724 65.3655 11.3929C65.2275 11.4134 65.0959 11.4647 64.9805 11.543" stroke="#2E353A" stroke-width="0.168402" stroke-linecap="round" stroke-linejoin="round"/>
<path d="M66.0352 14.8732C66.1165 15.1006 66.1809 15.3336 66.228 15.5704C66.2714 15.5727 66.3148 15.5727 66.3582 15.5704C66.9368 15.5448 67.1947 15.338 67.3086 15.1242C67.3613 15.0166 67.3868 14.8977 67.383 14.778C67.3848 14.7104 67.3762 14.643 67.3574 14.5781C67.0117 14.7548 66.6321 14.8554 66.2443 14.8732C66.1118 14.8732 66.0352 14.8732 66.0352 14.8732Z" fill="#2E353A"/>
<path d="M66.2422 14.8796L66.3049 15.0841C66.851 15.0585 67.2345 14.9656 67.3925 14.7936C67.3943 14.7261 67.3857 14.6586 67.3669 14.5938C67.0169 14.7688 66.6333 14.8663 66.2422 14.8796Z" fill="white"/>
<path d="M66.3555 15.5712C66.9341 15.5456 67.192 15.3388 67.3059 15.125C67.0861 15.1388 66.8705 15.1915 66.6692 15.2807C66.5368 15.3423 66.427 15.4439 66.3555 15.5712Z" fill="#DE5753"/>
<path d="M69.525 13.5873C69.525 13.5873 68.6884 11.9118 68.8976 10.6639C68.8976 10.6639 65.0656 8.84902 64.6543 12.8158C64.6543 12.8158 64.4637 9.26266 67.8681 9.36955C71.2725 9.47645 70.9867 14.4517 69.1485 15.8367C69.1485 15.8367 70.0409 14.6399 69.525 13.5873Z" fill="#2E353A"/>
<path d="M69.1785 13.9918C69.1939 13.8788 69.2315 13.77 69.289 13.6715C69.3465 13.5731 69.4229 13.487 69.5138 13.4181C69.6047 13.3493 69.7083 13.299 69.8186 13.2702C69.929 13.2415 70.0439 13.2347 70.1568 13.2505C70.7656 13.3504 70.9887 14.6238 69.4597 14.8446C69.225 14.8771 69.1134 14.6448 69.1785 13.9918Z" fill="#B97964"/>
<path d="M70.5175 19.3803C70.5175 19.3803 68.2959 21.1812 66.2417 21.151C64.1874 21.1208 63.4531 18.7993 63.4531 18.7993C63.4531 18.7993 66.6437 17.8489 70.5175 19.3803Z" fill="#B97964"/>
<path d="M70.3261 19.0391C70.3261 19.0391 66.6824 25.5643 70.5167 31.1415C70.5167 31.1415 71.0372 24.2607 72.2991 19.6549L70.3261 19.0391Z" fill="#FF5252"/>
<path d="M63.642 18.5234C63.642 18.5234 63.6095 23.1408 62.9449 24.8558C62.2803 26.5708 61.4367 29.7869 61.4367 29.7869C61.4367 29.7869 60.7954 22.0951 62.0549 18.6791L63.642 18.5234Z" fill="#FF5252"/>
<path d="M68.8945 10.6637C68.8945 10.6637 67.4212 10.1548 66.1245 10.6637C64.8279 11.1726 65.1811 12.5227 64.5234 12.7691" stroke="#2E353A" stroke-width="0.11619" stroke-linecap="round" stroke-linejoin="round"/>
<path d="M80.5936 17.6924L79.9848 17.3438L77.747 17.955L74.726 17.1719L74.0289 19.4655C74.0289 19.4655 73.8848 22.0217 74.0289 22.0519C74.173 22.0821 77.4867 22.254 77.4867 22.254L79.1715 21.1804L80.5936 17.6924Z" fill="#E0E0E0"/>
<path d="M73.9104 17.3438L72.5742 22.6351L76.699 23.0975L79.5456 22.3121L80.998 17.3438L77.7447 18.1873L73.9104 17.3438Z" fill="#FF5252"/>
<path opacity="0.4" d="M77.7447 18.1873L76.699 23.0975L72.5742 22.6351L73.9104 17.3438L77.7447 18.1873Z" fill="white"/>
<path opacity="0.2" d="M77.7449 18.1873L76.6992 23.0975L79.5459 22.3121L80.9983 17.3438L77.7449 18.1873Z" fill="white"/>
<path d="M74.125 27.892L76.0421 24.2111C75.9726 23.6416 75.9726 23.0657 76.0421 22.4961C76.1583 21.5666 76.1583 21.3598 76.8927 21.4365C77.627 21.5132 78.5983 21.3133 78.7145 21.5852C78.8307 21.8571 78.0941 23.8486 77.5526 24.2134L76.4256 27.892H74.125Z" fill="#B97964"/>
<path d="M73.5039 29.9097C74.7239 30.9485 76.1182 30.0561 76.892 27.0747L74.4915 26.7656L73.5039 29.9097Z" fill="#FF5252"/>
<path d="M74.6153 26.1094L74.125 26.9738L77.1645 27.3828V26.4928L74.6153 26.1094Z" fill="#2E353A"/>
<path d="M49.6797 21.6533L50.5209 22.1831L51.0716 19.1668L50.1816 19.125L49.6797 21.6533Z" fill="#2E353A"/>
<path d="M62.1382 31.3281L57.3047 59.7251C57.3047 59.7251 69.0027 61.1194 72.9672 60.306C72.9672 60.306 73.9408 39.9773 69.8021 31.9556L62.1382 31.3281Z" fill="#FF5252"/>
<path opacity="0.4" d="M62.1382 31.3281L57.3047 59.7251C57.3047 59.7251 69.0027 61.1194 72.9672 60.306C72.9672 60.306 73.9408 39.9773 69.8021 31.9556L62.1382 31.3281Z" fill="white"/>
<path d="M46.4413 18.8458L45.2375 17.6025C44.5195 16.8519 43.5435 15.869 42.5744 14.8813L41.1406 13.4406L39.8881 12.1834L39.0027 11.2957C38.8958 11.1888 38.8099 11.1051 38.7541 11.0471C38.7298 11.0337 38.703 11.0256 38.6754 11.0232C38.6478 11.0208 38.62 11.0242 38.5938 11.0331L38.9214 10.7031C38.9125 10.7294 38.9091 10.7572 38.9115 10.7848C38.9139 10.8124 38.922 10.8392 38.9354 10.8635L39.1863 11.1121L40.0787 11.9928L41.3382 13.2407L42.7882 14.6675C43.7805 15.6319 44.7681 16.6033 45.521 17.319L46.7712 18.5158L46.4413 18.8458Z" fill="#2E353A"/>
<path d="M55.3381 70.208C55.3381 70.208 54.1111 72.7781 53.4023 73.2754C53.4023 73.2754 54.3505 73.8401 55.3381 72.5783C56.6162 70.9516 56.9276 71.4164 56.9276 71.4164C56.9022 71.1357 56.8509 70.858 56.7742 70.5868C56.5813 70.0546 55.3381 70.208 55.3381 70.208Z" fill="#B97964"/>
<path d="M65.8483 70.1797C65.8483 70.1797 65.4998 71.1325 65.035 72.1782C64.8221 72.72 64.5065 73.2155 64.1055 73.6375C64.1055 73.6375 64.9142 73.9001 65.3487 73.3935C65.7833 72.8869 66.5292 71.0697 67.3658 71.2696C67.3213 71.1208 67.2589 70.978 67.1799 70.8443C67.0544 70.6444 65.8483 70.1797 65.8483 70.1797Z" fill="#B97964"/>
<path d="M11.9509 89.1538V91.475H8.13001V103.492H5.25411V91.475H1.43326V89.1538H11.9509ZM25.0393 97.5555C25.0393 97.9663 25.0119 98.3361 24.9571 98.6648H16.6375C16.706 99.4865 16.9936 100.13 17.5003 100.596C18.007 101.061 18.6301 101.294 19.3696 101.294C20.4378 101.294 21.1979 100.835 21.6498 99.9178H24.7517C24.423 101.013 23.793 101.917 22.8618 102.629C21.9306 103.328 20.787 103.677 19.4313 103.677C18.3357 103.677 17.3496 103.437 16.4732 102.958C15.6104 102.465 14.9325 101.773 14.4395 100.883C13.9602 99.9932 13.7205 98.9661 13.7205 97.802C13.7205 96.6243 13.9602 95.5903 14.4395 94.7001C14.9188 93.81 15.5899 93.1252 16.4526 92.6459C17.3154 92.1666 18.3083 91.9269 19.4313 91.9269C20.5131 91.9269 21.4786 92.1598 22.3277 92.6254C23.1905 93.091 23.8547 93.7552 24.3203 94.618C24.7996 95.467 25.0393 96.4462 25.0393 97.5555ZM22.0607 96.7338C22.047 95.9943 21.7799 95.4054 21.2595 94.9672C20.7391 94.5153 20.1023 94.2893 19.3491 94.2893C18.637 94.2893 18.0344 94.5084 17.5414 94.9466C17.0621 95.3712 16.7676 95.9669 16.6581 96.7338H22.0607ZM26.8097 97.7609C26.8097 96.6106 27.0357 95.5903 27.4876 94.7001C27.9533 93.81 28.5764 93.1252 29.357 92.6459C30.1513 92.1666 31.0346 91.9269 32.0069 91.9269C32.856 91.9269 33.5955 92.0981 34.2255 92.4405C34.8691 92.7829 35.3827 93.2143 35.7661 93.7347V92.1118H38.6626V103.492H35.7661V101.828C35.3964 102.362 34.8828 102.807 34.2255 103.164C33.5818 103.506 32.8354 103.677 31.9864 103.677C31.0277 103.677 30.1513 103.431 29.357 102.938C28.5764 102.445 27.9533 101.753 27.4876 100.863C27.0357 99.9589 26.8097 98.925 26.8097 97.7609ZM35.7661 97.802C35.7661 97.1036 35.6292 96.5078 35.3553 96.0148C35.0814 95.5081 34.7116 95.1247 34.246 94.8645C33.7804 94.5906 33.2805 94.4536 32.7464 94.4536C32.2123 94.4536 31.7193 94.5837 31.2674 94.8439C30.8155 95.1041 30.4457 95.4876 30.1581 95.9943C29.8842 96.4873 29.7473 97.0762 29.7473 97.7609C29.7473 98.4457 29.8842 99.0482 30.1581 99.5686C30.4457 100.075 30.8155 100.466 31.2674 100.74C31.733 101.013 32.226 101.15 32.7464 101.15C33.2805 101.15 33.7804 101.02 34.246 100.76C34.7116 100.486 35.0814 100.103 35.3553 99.6097C35.6292 99.103 35.7661 98.5004 35.7661 97.802ZM41.1427 97.802C41.1427 96.6243 41.3824 95.5971 41.8617 94.7207C42.341 93.8305 43.0052 93.1458 43.8543 92.6665C44.7034 92.1735 45.6757 91.9269 46.7713 91.9269C48.1818 91.9269 49.3459 92.283 50.2634 92.9951C51.1947 93.6936 51.8178 94.6796 52.1328 95.9532H49.0309C48.8666 95.4602 48.5858 95.0767 48.1887 94.8028C47.8052 94.5153 47.3259 94.3715 46.7507 94.3715C45.929 94.3715 45.2785 94.6727 44.7992 95.2753C44.3199 95.8642 44.0803 96.7064 44.0803 97.802C44.0803 98.8839 44.3199 99.7261 44.7992 100.329C45.2785 100.918 45.929 101.212 46.7507 101.212C47.9148 101.212 48.6748 100.692 49.0309 99.6508H52.1328C51.8178 100.883 51.1947 101.863 50.2634 102.588C49.3322 103.314 48.1681 103.677 46.7713 103.677C45.6757 103.677 44.7034 103.437 43.8543 102.958C43.0052 102.465 42.341 101.78 41.8617 100.904C41.3824 100.014 41.1427 98.9798 41.1427 97.802ZM61.0596 91.9475C61.9224 91.9475 62.6893 92.1392 63.3604 92.5227C64.0314 92.8924 64.5518 93.4471 64.9216 94.1866C65.305 94.9124 65.4967 95.7889 65.4967 96.816V103.492H62.6208V97.2063C62.6208 96.3024 62.3949 95.6108 61.943 95.1315C61.491 94.6385 60.8748 94.392 60.0942 94.392C59.2999 94.392 58.6699 94.6385 58.2043 95.1315C57.7523 95.6108 57.5264 96.3024 57.5264 97.2063V103.492H54.6505V88.291H57.5264V93.5292C57.8961 93.0362 58.3892 92.6528 59.0054 92.3789C59.6217 92.0913 60.3064 91.9475 61.0596 91.9475ZM79.2216 97.5555C79.2216 97.9663 79.1943 98.3361 79.1395 98.6648H70.8199C70.8884 99.4865 71.176 100.13 71.6827 100.596C72.1894 101.061 72.8125 101.294 73.552 101.294C74.6202 101.294 75.3803 100.835 75.8322 99.9178H78.9341C78.6054 101.013 77.9754 101.917 77.0442 102.629C76.1129 103.328 74.9694 103.677 73.6136 103.677C72.5181 103.677 71.532 103.437 70.6556 102.958C69.7928 102.465 69.1149 101.773 68.6219 100.883C68.1426 99.9932 67.9029 98.9661 67.9029 97.802C67.9029 96.6243 68.1426 95.5903 68.6219 94.7001C69.1012 93.81 69.7723 93.1252 70.635 92.6459C71.4978 92.1666 72.4907 91.9269 73.6136 91.9269C74.6955 91.9269 75.661 92.1598 76.5101 92.6254C77.3729 93.091 78.0371 93.7552 78.5027 94.618C78.982 95.467 79.2216 96.4462 79.2216 97.5555ZM76.243 96.7338C76.2293 95.9943 75.9623 95.4054 75.4419 94.9672C74.9215 94.5153 74.2847 94.2893 73.5315 94.2893C72.8193 94.2893 72.2168 94.5084 71.7238 94.9466C71.2444 95.3712 70.95 95.9669 70.8404 96.7338H76.243ZM84.6075 93.8785C84.9773 93.2759 85.4566 92.8034 86.0455 92.461C86.6481 92.1187 87.3328 91.9475 88.0997 91.9475V94.9672H87.3396C86.4358 94.9672 85.7511 95.1795 85.2854 95.604C84.8335 96.0285 84.6075 96.7681 84.6075 97.8225V103.492H81.7316V92.1118H84.6075V93.8785ZM94.8026 103.677C93.8713 103.677 93.0359 103.513 92.2964 103.184C91.5569 102.842 90.968 102.383 90.5298 101.808C90.1053 101.233 89.8724 100.596 89.8314 99.8973H92.7278C92.7826 100.336 92.9949 100.698 93.3646 100.986C93.7481 101.274 94.2205 101.417 94.782 101.417C95.3298 101.417 95.7543 101.308 96.0556 101.089C96.3706 100.87 96.5281 100.589 96.5281 100.247C96.5281 99.8768 96.3364 99.6029 95.9529 99.4248C95.5832 99.2331 94.9874 99.0277 94.1658 98.8086C93.3167 98.6032 92.6182 98.3909 92.0705 98.1718C91.5364 97.9526 91.0707 97.6171 90.6736 97.1652C90.2901 96.7133 90.0984 96.1039 90.0984 95.3369C90.0984 94.707 90.2764 94.1318 90.6325 93.6114C91.0023 93.091 91.5227 92.6802 92.1937 92.3789C92.8784 92.0776 93.6796 91.9269 94.5971 91.9269C95.9529 91.9269 97.0348 92.2693 97.8428 92.9541C98.6508 93.6251 99.0959 94.5358 99.178 95.6862H96.4254C96.3843 95.2342 96.1926 94.8782 95.8502 94.618C95.5215 94.3441 95.0765 94.2071 94.515 94.2071C93.9946 94.2071 93.5906 94.303 93.303 94.4947C93.0291 94.6864 92.8921 94.9535 92.8921 95.2959C92.8921 95.6793 93.0839 95.9738 93.4673 96.1792C93.8508 96.3709 94.4465 96.5695 95.2545 96.7749C96.0762 96.9803 96.7541 97.1926 97.2882 97.4117C97.8223 97.6308 98.281 97.9732 98.6645 98.4388C99.0616 98.8907 99.2671 99.4933 99.2808 100.247C99.2808 100.904 99.0959 101.493 98.7261 102.013C98.3701 102.534 97.8497 102.944 97.1649 103.246C96.4939 103.533 95.7064 103.677 94.8026 103.677Z" fill="#D14242"/>
</svg>
